<svg xmlns="http://www.w3.org/2000/svg" xmlns:xlink="http://www.w3.org/1999/xlink" width="567" zoomAndPan="magnify" viewBox="0 0 425.25 425.249985" height="567" preserveAspectRatio="xMidYMid meet" version="1.0"><defs><g/><clipPath id="31ab85d17e"><path d="M 110 152 L 319.652344 152 L 319.652344 214 L 110 214 Z M 110 152 " clip-rule="nonzero"/></clipPath><clipPath id="bf299c03c0"><path d="M 117 180 L 201 180 L 201 218.667969 L 117 218.667969 Z M 117 180 " clip-rule="nonzero"/></clipPath><clipPath id="7e3a76e0bc"><path d="M 171 162 L 310 162 L 310 218.667969 L 171 218.667969 Z M 171 162 " clip-rule="nonzero"/></clipPath></defs><g clip-path="url(#31ab85d17e)"><path fill="#0c9aed" d="M 319.570312 190.703125 C 319.570312 191.402344 319.515625 192.097656 319.402344 192.789062 C 319.289062 193.476562 319.121094 194.15625 318.898438 194.816406 C 318.679688 195.480469 318.402344 196.121094 318.078125 196.738281 C 317.753906 197.359375 317.378906 197.949219 316.957031 198.503906 C 316.539062 199.0625 316.074219 199.585938 315.570312 200.066406 C 315.066406 200.550781 314.523438 200.992188 313.949219 201.386719 C 313.371094 201.785156 312.765625 202.128906 312.136719 202.429688 C 311.503906 202.726562 310.851562 202.972656 310.179688 203.164062 C 310.550781 195.234375 310.003906 185.527344 307.007812 183.164062 C 296.234375 178.144531 285.105469 174.101562 273.625 171.03125 C 258.414062 166.542969 236.984375 161.171875 221.28125 161.171875 C 217.617188 161.097656 214.003906 161.507812 210.453125 162.410156 C 200.269531 165.285156 190.554688 169.289062 181.304688 174.425781 C 178.398438 176.476562 175.234375 177.992188 171.816406 178.976562 L 170.253906 180.136719 C 136.882812 181.953125 119.09375 192.484375 117.457031 196.765625 C 116.421875 202.203125 116.421875 207.640625 117.457031 213.078125 C 116.929688 212.953125 116.421875 212.773438 115.933594 212.539062 C 115.445312 212.308594 114.984375 212.027344 114.554688 211.695312 C 114.125 211.367188 113.734375 210.992188 113.386719 210.582031 C 113.035156 210.167969 112.730469 209.722656 112.476562 209.246094 C 112.21875 208.765625 112.015625 208.269531 111.867188 207.746094 C 111.714844 207.226562 111.621094 206.695312 111.585938 206.15625 C 111.546875 205.617188 111.566406 205.078125 111.644531 204.542969 C 111.71875 204.003906 111.851562 203.480469 112.039062 202.972656 C 111.414062 201.996094 110.933594 200.949219 110.589844 199.839844 C 110.25 198.730469 110.058594 197.59375 110.019531 196.433594 C 109.984375 195.273438 110.101562 194.128906 110.371094 193 C 110.640625 191.871094 111.054688 190.796875 111.613281 189.777344 C 112.171875 188.761719 112.855469 187.835938 113.664062 187 C 114.472656 186.167969 115.375 185.453125 116.375 184.863281 C 117.375 184.269531 118.433594 183.820312 119.554688 183.515625 C 120.675781 183.207031 121.816406 183.054688 122.976562 183.054688 C 122.976562 182.292969 123.085938 181.546875 123.3125 180.816406 C 123.535156 180.085938 123.859375 179.40625 124.285156 178.773438 C 124.714844 178.140625 125.222656 177.582031 125.816406 177.105469 C 126.410156 176.625 127.0625 176.242188 127.769531 175.957031 C 128.476562 175.671875 129.210938 175.496094 129.972656 175.429688 C 130.734375 175.367188 131.488281 175.414062 132.234375 175.574219 C 132.980469 175.734375 133.683594 176 134.351562 176.375 C 135.019531 176.746094 135.617188 177.207031 136.144531 177.757812 C 136.75 177.332031 137.386719 176.960938 138.054688 176.644531 C 138.722656 176.328125 139.414062 176.074219 140.128906 175.875 C 140.839844 175.675781 141.566406 175.542969 142.300781 175.46875 C 143.035156 175.394531 143.773438 175.382812 144.511719 175.4375 C 145.25 175.488281 145.976562 175.605469 146.695312 175.78125 C 147.414062 175.960938 148.109375 176.195312 148.789062 176.496094 C 149.464844 176.792969 150.113281 177.144531 150.730469 177.550781 C 151.347656 177.960938 151.925781 178.417969 152.464844 178.925781 C 152.902344 178.339844 153.386719 177.796875 153.914062 177.296875 C 154.445312 176.792969 155.011719 176.339844 155.621094 175.933594 C 156.226562 175.527344 156.863281 175.175781 157.527344 174.878906 C 158.195312 174.578125 158.882812 174.339844 159.589844 174.15625 C 160.292969 173.976562 161.011719 173.851562 161.738281 173.792969 C 162.464844 173.730469 163.195312 173.730469 163.921875 173.792969 C 164.648438 173.851562 165.363281 173.976562 166.070312 174.15625 C 166.777344 174.339844 167.464844 174.582031 168.128906 174.878906 C 168.152344 174.347656 168.207031 173.820312 168.292969 173.292969 C 168.378906 172.765625 168.496094 172.25 168.644531 171.738281 C 168.796875 171.226562 168.976562 170.726562 169.1875 170.238281 C 169.398438 169.75 169.640625 169.277344 169.910156 168.816406 C 170.179688 168.355469 170.476562 167.917969 170.800781 167.492188 C 171.128906 167.070312 171.476562 166.671875 171.851562 166.292969 C 172.222656 165.910156 172.621094 165.558594 173.039062 165.226562 C 173.453125 164.894531 173.890625 164.59375 174.347656 164.316406 C 174.800781 164.039062 175.273438 163.789062 175.757812 163.570312 C 176.242188 163.351562 176.742188 163.164062 177.25 163.007812 C 177.757812 162.851562 178.273438 162.722656 178.796875 162.628906 C 179.324219 162.535156 179.851562 162.476562 180.382812 162.445312 C 180.914062 162.417969 181.445312 162.421875 181.976562 162.457031 C 182.507812 162.496094 183.035156 162.566406 183.558594 162.667969 C 184.082031 162.769531 184.597656 162.902344 185.101562 163.066406 C 185.609375 163.230469 186.105469 163.425781 186.585938 163.652344 C 186.660156 163.335938 186.753906 163.019531 186.871094 162.714844 C 186.984375 162.40625 187.121094 162.109375 187.273438 161.816406 C 187.425781 161.527344 187.597656 161.25 187.789062 160.980469 C 187.976562 160.714844 188.183594 160.460938 188.40625 160.21875 C 188.625 159.976562 188.863281 159.75 189.113281 159.539062 C 189.367188 159.328125 189.628906 159.132812 189.90625 158.957031 C 190.183594 158.78125 190.46875 158.621094 190.765625 158.480469 C 191.0625 158.339844 191.367188 158.21875 191.675781 158.121094 C 191.988281 158.019531 192.308594 157.9375 192.628906 157.878906 C 192.953125 157.816406 193.277344 157.777344 193.605469 157.761719 C 193.933594 157.742188 194.257812 157.742188 194.585938 157.769531 C 194.914062 157.792969 195.238281 157.835938 195.558594 157.902344 C 195.878906 157.96875 196.195312 158.054688 196.507812 158.160156 C 196.816406 158.265625 197.121094 158.390625 197.414062 158.535156 C 197.707031 158.679688 197.992188 158.84375 198.265625 159.023438 C 198.539062 159.207031 198.796875 159.40625 199.046875 159.621094 C 199.589844 158.53125 200.273438 157.535156 201.09375 156.636719 C 201.917969 155.742188 202.851562 154.972656 203.890625 154.339844 C 204.929688 153.703125 206.035156 153.226562 207.210938 152.902344 C 208.382812 152.578125 209.578125 152.425781 210.796875 152.4375 C 212.015625 152.453125 213.207031 152.636719 214.375 152.984375 C 215.539062 153.335938 216.636719 153.839844 217.660156 154.5 C 218.683594 155.160156 219.597656 155.949219 220.398438 156.863281 C 221.199219 157.78125 221.859375 158.789062 222.378906 159.894531 C 223.484375 159.246094 224.65625 158.777344 225.902344 158.480469 C 227.148438 158.183594 228.40625 158.074219 229.683594 158.148438 C 230.960938 158.226562 232.203125 158.488281 233.402344 158.929688 C 234.601562 159.375 235.710938 159.984375 236.730469 160.757812 C 236.964844 160.148438 237.242188 159.558594 237.566406 158.992188 C 237.890625 158.425781 238.253906 157.886719 238.65625 157.375 C 239.0625 156.863281 239.5 156.382812 239.976562 155.9375 C 240.453125 155.492188 240.960938 155.082031 241.5 154.714844 C 242.039062 154.34375 242.601562 154.019531 243.1875 153.734375 C 243.777344 153.449219 244.382812 153.210938 245.003906 153.019531 C 245.628906 152.828125 246.261719 152.679688 246.90625 152.585938 C 247.554688 152.488281 248.203125 152.441406 248.855469 152.441406 C 249.507812 152.441406 250.15625 152.492188 250.800781 152.589844 C 251.445312 152.691406 252.078125 152.835938 252.703125 153.03125 C 253.324219 153.226562 253.929688 153.46875 254.515625 153.753906 C 255.101562 154.039062 255.664062 154.367188 256.203125 154.738281 C 256.738281 155.109375 257.246094 155.519531 257.71875 155.964844 C 258.195312 156.414062 258.632812 156.894531 259.035156 157.410156 C 259.4375 157.921875 259.800781 158.464844 260.121094 159.03125 C 260.441406 159.597656 260.71875 160.1875 260.949219 160.796875 C 261.230469 160.78125 261.511719 160.769531 261.792969 160.769531 C 262.441406 160.769531 263.089844 160.816406 263.730469 160.914062 C 264.375 161.011719 265.007812 161.15625 265.628906 161.351562 C 266.25 161.542969 266.855469 161.78125 267.4375 162.066406 C 268.023438 162.347656 268.585938 162.671875 269.121094 163.042969 C 269.660156 163.410156 270.164062 163.816406 270.640625 164.257812 C 271.117188 164.703125 271.554688 165.179688 271.960938 165.691406 C 272.363281 166.199219 272.726562 166.738281 273.050781 167.304688 C 273.371094 167.867188 273.652344 168.453125 273.886719 169.0625 C 274.507812 168.636719 275.183594 168.308594 275.902344 168.082031 C 276.625 167.855469 277.363281 167.738281 278.117188 167.734375 C 278.875 167.726562 279.613281 167.828125 280.339844 168.042969 C 281.066406 168.253906 281.742188 168.566406 282.375 168.980469 C 282.726562 168.363281 283.125 167.777344 283.570312 167.222656 C 284.019531 166.671875 284.507812 166.160156 285.039062 165.6875 C 285.570312 165.214844 286.136719 164.789062 286.738281 164.410156 C 287.339844 164.027344 287.96875 163.703125 288.625 163.425781 C 289.28125 163.148438 289.953125 162.929688 290.644531 162.765625 C 291.339844 162.601562 292.039062 162.492188 292.75 162.441406 C 293.457031 162.394531 294.167969 162.402344 294.875 162.46875 C 295.582031 162.535156 296.28125 162.660156 296.96875 162.84375 C 297.65625 163.027344 298.324219 163.261719 298.972656 163.554688 C 299.621094 163.847656 300.238281 164.191406 300.832031 164.585938 C 301.425781 164.976562 301.980469 165.417969 302.5 165.902344 C 303.019531 166.390625 303.496094 166.914062 303.929688 167.476562 C 304.363281 168.042969 304.746094 168.636719 305.082031 169.265625 C 305.414062 169.894531 305.695312 170.542969 305.925781 171.21875 C 306.152344 171.890625 306.324219 172.578125 306.4375 173.28125 C 306.554688 173.980469 306.609375 174.6875 306.609375 175.398438 C 306.609375 176.191406 306.539062 176.972656 306.394531 177.75 L 306.609375 177.75 C 307.460938 177.75 308.300781 177.832031 309.136719 178 C 309.972656 178.164062 310.78125 178.410156 311.566406 178.734375 C 312.351562 179.0625 313.101562 179.460938 313.808594 179.933594 C 314.515625 180.40625 315.167969 180.941406 315.769531 181.542969 C 316.375 182.144531 316.910156 182.800781 317.382812 183.507812 C 317.855469 184.214844 318.257812 184.960938 318.582031 185.746094 C 318.90625 186.53125 319.152344 187.34375 319.320312 188.175781 C 319.488281 189.011719 319.570312 189.851562 319.570312 190.703125 Z M 319.570312 190.703125 " fill-opacity="1" fill-rule="nonzero"/></g><g clip-path="url(#bf299c03c0)"><path fill="#000000" d="M 179.417969 214.433594 C 179.417969 214.433594 185.648438 215.058594 188.335938 215.453125 L 178.808594 215.453125 C 175.90625 194.75 161.375 196.859375 147.976562 197.867188 C 134.578125 198.871094 138.351562 215.929688 138.351562 218.746094 L 127.9375 217.625 C 124.710938 217.457031 119.683594 216.980469 119.160156 215.675781 C 118.382812 213.734375 116.875 201.363281 118.484375 197.164062 C 120.097656 192.964844 147.671875 176.875 200.929688 181.878906 C 198.140625 181.878906 176.332031 183.417969 155.828125 186.695312 C 156.140625 186.527344 156.472656 186.441406 156.828125 186.441406 C 156.550781 186.441406 156.28125 186.390625 156.023438 186.28125 C 155.765625 186.175781 155.535156 186.023438 155.339844 185.824219 C 155.140625 185.628906 154.988281 185.398438 154.882812 185.140625 C 154.773438 184.882812 154.71875 184.613281 154.71875 184.335938 C 154.71875 184.613281 154.664062 184.882812 154.558594 185.140625 C 154.453125 185.398438 154.300781 185.628906 154.101562 185.824219 C 153.90625 186.023438 153.675781 186.175781 153.417969 186.28125 C 153.160156 186.390625 152.890625 186.441406 152.613281 186.441406 C 153.15625 186.441406 153.625 186.625 154.027344 186.988281 C 138 189.640625 123.144531 193.371094 119.3125 198.28125 C 119.238281 203.558594 119.5 208.820312 120.101562 214.0625 L 128.730469 216.617188 C 131.863281 216.992188 136.589844 217.707031 136.589844 217.515625 C 133.96875 196.609375 140.636719 195.9375 159.351562 195.59375 C 177.8125 195.25 179.417969 214.433594 179.417969 214.433594 Z M 179.417969 214.433594 " fill-opacity="1" fill-rule="nonzero"/></g><g clip-path="url(#7e3a76e0bc)"><path fill="#000000" d="M 306.324219 184.03125 C 302.234375 180.804688 234.648438 156.714844 210.75 163.476562 C 186.855469 170.238281 178.125 179.140625 171.359375 179.699219 C 175.019531 180.371094 187.960938 174.609375 198.320312 170.902344 C 213.664062 165.414062 250.855469 167.769531 271.433594 176.246094 C 292.015625 184.722656 300.675781 185.753906 302.773438 185.753906 C 304.871094 185.753906 305.933594 190.910156 305.933594 194.300781 C 305.933594 194.367188 305.933594 194.4375 305.933594 194.511719 C 303.277344 200.414062 299.515625 205.492188 294.644531 209.75 C 291.710938 191.890625 281.175781 188.046875 266.0625 187.910156 C 250.5625 187.746094 250.132812 199.640625 247.871094 205.773438 C 245.609375 211.90625 220.589844 212.472656 214.941406 213.84375 C 214.941406 213.84375 243.195312 215.136719 247.871094 211.101562 C 252.546875 207.066406 245.773438 190.597656 267.082031 190.425781 C 286.886719 190.265625 291.632812 203.9375 292.207031 211.3125 C 289.445312 212.722656 291.351562 215.175781 291.351562 218.472656 C 295.132812 218.472656 306.085938 216.976562 307.699219 213.199219 C 309.308594 209.425781 310.414062 187.261719 306.324219 184.03125 Z M 306.324219 184.03125 " fill-opacity="1" fill-rule="nonzero"/></g><path fill="#0c9aed" d="M 158.160156 162.886719 C 157.882812 162.886719 157.609375 162.914062 157.339844 162.96875 C 157.066406 163.019531 156.804688 163.101562 156.550781 163.207031 C 156.296875 163.3125 156.054688 163.441406 155.824219 163.59375 C 155.59375 163.75 155.382812 163.921875 155.1875 164.117188 C 154.992188 164.3125 154.816406 164.523438 154.664062 164.753906 C 154.511719 164.984375 154.382812 165.226562 154.277344 165.480469 C 154.171875 165.734375 154.089844 166 154.035156 166.269531 C 153.984375 166.539062 153.957031 166.8125 153.957031 167.089844 C 153.957031 167.363281 153.984375 167.636719 154.035156 167.910156 C 154.089844 168.179688 154.171875 168.441406 154.277344 168.695312 C 154.382812 168.953125 154.511719 169.195312 154.664062 169.421875 C 154.816406 169.652344 154.992188 169.863281 155.1875 170.058594 C 155.382812 170.253906 155.59375 170.429688 155.824219 170.582031 C 156.054688 170.734375 156.296875 170.867188 156.550781 170.972656 C 156.804688 171.078125 157.066406 171.15625 157.339844 171.210938 C 157.609375 171.265625 157.882812 171.292969 158.160156 171.292969 C 158.433594 171.292969 158.707031 171.265625 158.976562 171.210938 C 159.25 171.15625 159.511719 171.078125 159.765625 170.972656 C 160.019531 170.867188 160.261719 170.734375 160.492188 170.582031 C 160.722656 170.429688 160.933594 170.253906 161.128906 170.058594 C 161.324219 169.863281 161.5 169.652344 161.652344 169.421875 C 161.804688 169.195312 161.933594 168.953125 162.039062 168.695312 C 162.144531 168.441406 162.226562 168.179688 162.28125 167.910156 C 162.332031 167.636719 162.359375 167.363281 162.359375 167.089844 C 162.359375 166.8125 162.332031 166.539062 162.28125 166.269531 C 162.226562 166 162.144531 165.734375 162.039062 165.480469 C 161.933594 165.226562 161.804688 164.984375 161.652344 164.753906 C 161.5 164.523438 161.324219 164.3125 161.128906 164.117188 C 160.933594 163.921875 160.722656 163.75 160.492188 163.59375 C 160.261719 163.441406 160.019531 163.3125 159.765625 163.207031 C 159.511719 163.101562 159.25 163.019531 158.976562 162.96875 C 158.707031 162.914062 158.433594 162.886719 158.160156 162.886719 Z M 159.796875 170.183594 C 160.140625 169.902344 160.425781 169.570312 160.644531 169.1875 C 160.867188 168.800781 161.011719 168.390625 161.082031 167.953125 C 161.152344 167.511719 161.144531 167.078125 161.054688 166.640625 C 160.960938 166.207031 160.796875 165.804688 160.558594 165.429688 C 160.316406 165.054688 160.019531 164.738281 159.664062 164.472656 C 159.304688 164.210938 158.914062 164.019531 158.484375 163.898438 C 158.058594 163.78125 157.625 163.742188 157.179688 163.78125 C 156.738281 163.824219 156.320312 163.941406 155.921875 164.136719 C 156.117188 163.972656 156.332031 163.835938 156.558594 163.71875 C 156.785156 163.601562 157.019531 163.507812 157.265625 163.441406 C 157.511719 163.375 157.765625 163.335938 158.019531 163.320312 C 158.273438 163.308594 158.527344 163.320312 158.78125 163.359375 C 159.03125 163.398438 159.277344 163.464844 159.515625 163.558594 C 159.753906 163.648438 159.980469 163.765625 160.195312 163.90625 C 160.40625 164.042969 160.605469 164.207031 160.785156 164.386719 C 160.964844 164.570312 161.121094 164.765625 161.257812 164.980469 C 161.398438 165.195312 161.511719 165.425781 161.601562 165.664062 C 161.691406 165.902344 161.753906 166.148438 161.789062 166.402344 C 161.828125 166.652344 161.839844 166.90625 161.820312 167.160156 C 161.804688 167.417969 161.761719 167.667969 161.691406 167.914062 C 161.625 168.160156 161.53125 168.394531 161.410156 168.621094 C 161.289062 168.847656 161.148438 169.054688 160.984375 169.253906 C 160.820312 169.449219 160.636719 169.625 160.4375 169.78125 C 160.234375 169.9375 160.019531 170.070312 159.789062 170.183594 Z M 159.796875 170.183594 " fill-opacity="1" fill-rule="nonzero"/><path fill="#0c9aed" d="M 175.5625 146.519531 C 175.285156 146.519531 175.011719 146.546875 174.742188 146.601562 C 174.472656 146.65625 174.210938 146.734375 173.953125 146.839844 C 173.699219 146.945312 173.457031 147.074219 173.226562 147.230469 C 173 147.382812 172.785156 147.558594 172.59375 147.753906 C 172.398438 147.949219 172.222656 148.160156 172.070312 148.390625 C 171.917969 148.617188 171.789062 148.859375 171.683594 149.117188 C 171.578125 149.371094 171.496094 149.632812 171.445312 149.90625 C 171.390625 150.175781 171.363281 150.449219 171.363281 150.722656 C 171.363281 151 171.390625 151.273438 171.445312 151.542969 C 171.5 151.8125 171.578125 152.078125 171.683594 152.332031 C 171.789062 152.585938 171.917969 152.828125 172.074219 153.058594 C 172.226562 153.289062 172.402344 153.5 172.597656 153.695312 C 172.789062 153.890625 173.003906 154.0625 173.234375 154.214844 C 173.460938 154.371094 173.703125 154.5 173.960938 154.605469 C 174.214844 154.710938 174.476562 154.789062 174.746094 154.84375 C 175.019531 154.898438 175.292969 154.925781 175.566406 154.925781 C 175.84375 154.921875 176.117188 154.898438 176.386719 154.84375 C 176.65625 154.789062 176.921875 154.710938 177.175781 154.605469 C 177.429688 154.496094 177.671875 154.367188 177.902344 154.214844 C 178.128906 154.0625 178.34375 153.886719 178.539062 153.691406 C 178.734375 153.496094 178.90625 153.285156 179.058594 153.054688 C 179.214844 152.828125 179.34375 152.585938 179.449219 152.328125 C 179.554688 152.074219 179.632812 151.8125 179.6875 151.542969 C 179.742188 151.269531 179.769531 150.996094 179.769531 150.722656 C 179.769531 150.445312 179.742188 150.171875 179.6875 149.902344 C 179.632812 149.628906 179.554688 149.367188 179.449219 149.113281 C 179.34375 148.859375 179.210938 148.617188 179.058594 148.386719 C 178.90625 148.15625 178.730469 147.945312 178.535156 147.75 C 178.339844 147.554688 178.128906 147.378906 177.898438 147.226562 C 177.667969 147.074219 177.425781 146.945312 177.171875 146.839844 C 176.917969 146.734375 176.652344 146.652344 176.382812 146.597656 C 176.113281 146.546875 175.839844 146.519531 175.5625 146.519531 Z M 177.199219 153.816406 C 177.542969 153.535156 177.824219 153.203125 178.046875 152.820312 C 178.265625 152.433594 178.414062 152.023438 178.480469 151.585938 C 178.550781 151.148438 178.542969 150.714844 178.449219 150.277344 C 178.359375 149.84375 178.195312 149.441406 177.957031 149.070312 C 177.71875 148.695312 177.417969 148.378906 177.0625 148.113281 C 176.707031 147.851562 176.316406 147.65625 175.890625 147.539062 C 175.464844 147.417969 175.027344 147.378906 174.585938 147.417969 C 174.144531 147.457031 173.726562 147.574219 173.328125 147.769531 C 173.527344 147.609375 173.738281 147.46875 173.964844 147.351562 C 174.191406 147.234375 174.425781 147.144531 174.671875 147.078125 C 174.921875 147.011719 175.171875 146.972656 175.425781 146.957031 C 175.679688 146.945312 175.933594 146.957031 176.183594 146.996094 C 176.4375 147.039062 176.679688 147.101562 176.917969 147.195312 C 177.15625 147.289062 177.382812 147.402344 177.597656 147.542969 C 177.808594 147.683594 178.003906 147.84375 178.183594 148.023438 C 178.363281 148.203125 178.523438 148.402344 178.660156 148.617188 C 178.796875 148.832031 178.910156 149.058594 179 149.296875 C 179.089844 149.535156 179.15625 149.78125 179.191406 150.035156 C 179.230469 150.285156 179.242188 150.539062 179.222656 150.792969 C 179.207031 151.050781 179.164062 151.300781 179.097656 151.542969 C 179.027344 151.789062 178.933594 152.027344 178.816406 152.25 C 178.695312 152.476562 178.554688 152.6875 178.390625 152.882812 C 178.230469 153.078125 178.046875 153.253906 177.847656 153.414062 C 177.644531 153.570312 177.429688 153.703125 177.199219 153.816406 Z M 177.199219 153.816406 " fill-opacity="1" fill-rule="nonzero"/><path fill="#0c9aed" d="M 309.164062 171.285156 C 309.164062 171.558594 309.191406 171.832031 309.246094 172.101562 C 309.300781 172.375 309.378906 172.636719 309.484375 172.890625 C 309.589844 173.148438 309.71875 173.390625 309.871094 173.617188 C 310.027344 173.847656 310.199219 174.058594 310.394531 174.253906 C 310.589844 174.449219 310.800781 174.625 311.03125 174.777344 C 311.261719 174.929688 311.503906 175.058594 311.757812 175.164062 C 312.011719 175.273438 312.277344 175.351562 312.546875 175.40625 C 312.816406 175.457031 313.089844 175.484375 313.367188 175.484375 C 313.640625 175.484375 313.914062 175.457031 314.1875 175.40625 C 314.457031 175.351562 314.71875 175.273438 314.972656 175.164062 C 315.230469 175.058594 315.472656 174.929688 315.699219 174.777344 C 315.929688 174.625 316.144531 174.449219 316.339844 174.253906 C 316.53125 174.058594 316.707031 173.847656 316.859375 173.617188 C 317.015625 173.390625 317.144531 173.148438 317.25 172.890625 C 317.355469 172.636719 317.433594 172.375 317.488281 172.101562 C 317.542969 171.832031 317.570312 171.558594 317.570312 171.285156 C 317.570312 171.007812 317.542969 170.734375 317.488281 170.464844 C 317.433594 170.191406 317.355469 169.929688 317.25 169.675781 C 317.144531 169.421875 317.015625 169.179688 316.859375 168.949219 C 316.707031 168.71875 316.53125 168.507812 316.339844 168.3125 C 316.144531 168.117188 315.929688 167.941406 315.699219 167.789062 C 315.472656 167.636719 315.230469 167.507812 314.972656 167.402344 C 314.71875 167.296875 314.457031 167.214844 314.1875 167.164062 C 313.914062 167.109375 313.640625 167.082031 313.367188 167.082031 C 313.089844 167.082031 312.816406 167.109375 312.546875 167.164062 C 312.277344 167.214844 312.011719 167.296875 311.757812 167.402344 C 311.503906 167.507812 311.261719 167.636719 311.03125 167.789062 C 310.800781 167.941406 310.589844 168.117188 310.394531 168.3125 C 310.199219 168.507812 310.027344 168.71875 309.871094 168.949219 C 309.71875 169.179688 309.589844 169.421875 309.484375 169.675781 C 309.378906 169.929688 309.300781 170.191406 309.246094 170.464844 C 309.191406 170.734375 309.164062 171.007812 309.164062 171.285156 Z M 309.703125 171.132812 C 309.703125 170.4375 309.890625 169.792969 310.265625 169.203125 C 310.636719 168.613281 311.140625 168.167969 311.769531 167.871094 C 312.398438 167.570312 313.0625 167.464844 313.753906 167.546875 C 314.445312 167.628906 315.0625 167.890625 315.605469 168.332031 C 315.203125 168.125 314.78125 167.996094 314.332031 167.949219 C 313.886719 167.898438 313.445312 167.933594 313.011719 168.050781 C 312.578125 168.167969 312.175781 168.355469 311.8125 168.621094 C 311.449219 168.886719 311.148438 169.210938 310.902344 169.589844 C 310.660156 169.964844 310.492188 170.375 310.402344 170.816406 C 310.3125 171.257812 310.304688 171.699219 310.378906 172.144531 C 310.453125 172.585938 310.605469 173.003906 310.835938 173.390625 C 311.066406 173.777344 311.359375 174.109375 311.710938 174.386719 C 311.097656 174.082031 310.605469 173.636719 310.246094 173.050781 C 309.882812 172.464844 309.703125 171.828125 309.703125 171.140625 Z M 309.703125 171.132812 " fill-opacity="1" fill-rule="nonzero"/><path fill="#0c9aed" d="M 274.515625 161.414062 C 274.515625 161.6875 274.539062 161.960938 274.59375 162.230469 C 274.648438 162.503906 274.726562 162.765625 274.832031 163.019531 C 274.9375 163.277344 275.070312 163.515625 275.222656 163.746094 C 275.375 163.976562 275.550781 164.1875 275.746094 164.382812 C 275.941406 164.578125 276.152344 164.753906 276.382812 164.90625 C 276.609375 165.058594 276.851562 165.1875 277.109375 165.292969 C 277.363281 165.398438 277.625 165.480469 277.894531 165.535156 C 278.167969 165.585938 278.441406 165.613281 278.714844 165.613281 C 278.992188 165.613281 279.265625 165.585938 279.535156 165.535156 C 279.804688 165.480469 280.070312 165.398438 280.324219 165.292969 C 280.578125 165.1875 280.820312 165.058594 281.050781 164.90625 C 281.28125 164.753906 281.492188 164.578125 281.6875 164.382812 C 281.882812 164.1875 282.058594 163.976562 282.210938 163.746094 C 282.363281 163.515625 282.492188 163.277344 282.597656 163.019531 C 282.703125 162.765625 282.785156 162.503906 282.835938 162.230469 C 282.890625 161.960938 282.917969 161.6875 282.917969 161.414062 C 282.917969 161.136719 282.890625 160.863281 282.835938 160.59375 C 282.785156 160.320312 282.703125 160.058594 282.597656 159.804688 C 282.492188 159.550781 282.363281 159.308594 282.210938 159.078125 C 282.058594 158.847656 281.882812 158.636719 281.6875 158.441406 C 281.492188 158.246094 281.28125 158.070312 281.050781 157.917969 C 280.820312 157.765625 280.578125 157.636719 280.324219 157.53125 C 280.070312 157.425781 279.804688 157.34375 279.535156 157.289062 C 279.265625 157.238281 278.992188 157.210938 278.714844 157.210938 C 278.441406 157.210938 278.167969 157.238281 277.894531 157.289062 C 277.625 157.34375 277.363281 157.425781 277.109375 157.53125 C 276.851562 157.636719 276.609375 157.765625 276.382812 157.917969 C 276.152344 158.070312 275.941406 158.246094 275.746094 158.441406 C 275.550781 158.636719 275.375 158.847656 275.222656 159.078125 C 275.070312 159.308594 274.9375 159.550781 274.832031 159.804688 C 274.726562 160.058594 274.648438 160.320312 274.59375 160.59375 C 274.539062 160.863281 274.515625 161.136719 274.515625 161.414062 Z M 275.050781 161.261719 C 275.050781 160.566406 275.238281 159.921875 275.609375 159.332031 C 275.984375 158.742188 276.484375 158.296875 277.113281 158 C 277.746094 157.699219 278.40625 157.589844 279.097656 157.675781 C 279.792969 157.757812 280.410156 158.019531 280.949219 158.460938 C 280.550781 158.265625 280.132812 158.148438 279.691406 158.109375 C 279.25 158.070312 278.816406 158.109375 278.386719 158.230469 C 277.960938 158.347656 277.570312 158.539062 277.214844 158.804688 C 276.859375 159.066406 276.5625 159.386719 276.320312 159.757812 C 276.082031 160.132812 275.917969 160.535156 275.828125 160.96875 C 275.738281 161.402344 275.726562 161.839844 275.796875 162.277344 C 275.867188 162.714844 276.011719 163.125 276.230469 163.511719 C 276.453125 163.894531 276.734375 164.226562 277.078125 164.507812 C 276.457031 164.203125 275.960938 163.761719 275.59375 163.175781 C 275.226562 162.589844 275.042969 161.953125 275.042969 161.261719 Z M 275.050781 161.261719 " fill-opacity="1" fill-rule="nonzero"/><path fill="#0c9aed" d="M 225.746094 148.25 C 225.746094 148.523438 225.773438 148.796875 225.824219 149.066406 C 225.878906 149.339844 225.960938 149.601562 226.066406 149.855469 C 226.171875 150.109375 226.300781 150.351562 226.453125 150.582031 C 226.605469 150.8125 226.78125 151.023438 226.976562 151.21875 C 227.171875 151.414062 227.382812 151.589844 227.613281 151.742188 C 227.84375 151.894531 228.085938 152.023438 228.339844 152.128906 C 228.59375 152.234375 228.855469 152.316406 229.128906 152.371094 C 229.398438 152.421875 229.671875 152.449219 229.949219 152.449219 C 230.222656 152.449219 230.496094 152.421875 230.765625 152.371094 C 231.039062 152.316406 231.300781 152.234375 231.554688 152.128906 C 231.808594 152.023438 232.050781 151.894531 232.28125 151.742188 C 232.511719 151.589844 232.722656 151.414062 232.917969 151.21875 C 233.113281 151.023438 233.289062 150.8125 233.441406 150.582031 C 233.59375 150.351562 233.722656 150.109375 233.828125 149.855469 C 233.933594 149.601562 234.015625 149.339844 234.070312 149.066406 C 234.121094 148.796875 234.148438 148.523438 234.148438 148.25 C 234.148438 147.972656 234.121094 147.699219 234.070312 147.429688 C 234.015625 147.15625 233.933594 146.894531 233.828125 146.640625 C 233.722656 146.386719 233.59375 146.144531 233.441406 145.914062 C 233.289062 145.683594 233.113281 145.472656 232.917969 145.277344 C 232.722656 145.082031 232.511719 144.90625 232.28125 144.753906 C 232.050781 144.601562 231.808594 144.472656 231.554688 144.367188 C 231.300781 144.261719 231.039062 144.179688 230.765625 144.125 C 230.496094 144.074219 230.222656 144.046875 229.949219 144.046875 C 229.671875 144.046875 229.398438 144.074219 229.128906 144.125 C 228.855469 144.179688 228.59375 144.261719 228.339844 144.367188 C 228.085938 144.472656 227.84375 144.601562 227.613281 144.753906 C 227.382812 144.90625 227.171875 145.082031 226.976562 145.277344 C 226.78125 145.472656 226.605469 145.683594 226.453125 145.914062 C 226.300781 146.144531 226.171875 146.386719 226.066406 146.640625 C 225.960938 146.894531 225.878906 147.15625 225.824219 147.429688 C 225.773438 147.699219 225.746094 147.972656 225.746094 148.25 Z M 226.28125 148.097656 C 226.28125 147.402344 226.46875 146.757812 226.839844 146.167969 C 227.214844 145.578125 227.714844 145.132812 228.347656 144.832031 C 228.976562 144.535156 229.636719 144.425781 230.332031 144.511719 C 231.023438 144.59375 231.640625 144.859375 232.179688 145.300781 C 231.683594 145.050781 231.152344 144.925781 230.59375 144.925781 C 230.222656 144.925781 229.859375 144.984375 229.503906 145.097656 C 229.148438 145.210938 228.816406 145.375 228.511719 145.589844 C 228.207031 145.804688 227.945312 146.058594 227.71875 146.355469 C 227.492188 146.652344 227.316406 146.976562 227.191406 147.328125 C 227.066406 147.679688 227 148.042969 226.984375 148.414062 C 226.972656 148.789062 227.015625 149.152344 227.117188 149.511719 C 227.214844 149.871094 227.367188 150.207031 227.570312 150.519531 C 227.773438 150.832031 228.019531 151.105469 228.308594 151.34375 C 227.6875 151.039062 227.191406 150.59375 226.824219 150.003906 C 226.460938 149.417969 226.277344 148.777344 226.28125 148.082031 Z M 226.28125 148.097656 " fill-opacity="1" fill-rule="nonzero"/><path fill="#0c9aed" d="M 196.726562 151.570312 C 196.453125 151.570312 196.191406 151.625 195.9375 151.726562 C 195.683594 151.832031 195.460938 151.980469 195.269531 152.175781 C 195.074219 152.367188 194.925781 152.589844 194.820312 152.84375 C 194.71875 153.097656 194.664062 153.359375 194.664062 153.632812 C 194.664062 153.90625 194.71875 154.167969 194.820312 154.421875 C 194.925781 154.675781 195.074219 154.898438 195.269531 155.089844 C 195.460938 155.285156 195.683594 155.433594 195.9375 155.539062 C 196.191406 155.640625 196.453125 155.695312 196.726562 155.695312 C 197 155.695312 197.261719 155.640625 197.515625 155.539062 C 197.769531 155.433594 197.992188 155.285156 198.183594 155.089844 C 198.378906 154.898438 198.527344 154.675781 198.632812 154.421875 C 198.734375 154.167969 198.789062 153.90625 198.789062 153.632812 C 198.789062 153.359375 198.734375 153.097656 198.632812 152.84375 C 198.527344 152.589844 198.378906 152.367188 198.183594 152.175781 C 197.992188 151.980469 197.769531 151.832031 197.515625 151.726562 C 197.261719 151.625 197 151.570312 196.726562 151.570312 Z M 197.53125 155.148438 C 197.820312 154.910156 198.015625 154.613281 198.117188 154.25 C 198.21875 153.890625 198.203125 153.53125 198.078125 153.179688 C 197.953125 152.824219 197.738281 152.542969 197.429688 152.324219 C 197.125 152.109375 196.785156 152 196.410156 152 C 196.132812 152 195.875 152.0625 195.628906 152.183594 C 195.957031 151.917969 196.332031 151.78125 196.753906 151.785156 C 197.164062 151.785156 197.535156 151.910156 197.859375 152.167969 C 198.183594 152.425781 198.390625 152.753906 198.484375 153.15625 C 198.578125 153.558594 198.535156 153.949219 198.359375 154.320312 C 198.179688 154.695312 197.90625 154.972656 197.535156 155.152344 Z M 197.53125 155.148438 " fill-opacity="1" fill-rule="nonzero"/><path fill="#000000" d="M 206.886719 155.695312 C 206.613281 155.695312 206.347656 155.746094 206.097656 155.851562 C 205.84375 155.957031 205.621094 156.105469 205.425781 156.300781 C 205.234375 156.492188 205.085938 156.714844 204.980469 156.96875 C 204.875 157.222656 204.824219 157.484375 204.824219 157.757812 C 204.824219 158.03125 204.875 158.292969 204.980469 158.546875 C 205.085938 158.800781 205.234375 159.023438 205.429688 159.214844 C 205.621094 159.410156 205.847656 159.558594 206.097656 159.664062 C 206.351562 159.765625 206.613281 159.820312 206.886719 159.816406 C 207.160156 159.816406 207.425781 159.765625 207.675781 159.660156 C 207.929688 159.554688 208.152344 159.40625 208.347656 159.210938 C 208.539062 159.019531 208.6875 158.796875 208.792969 158.542969 C 208.894531 158.289062 208.949219 158.027344 208.949219 157.753906 C 208.945312 157.480469 208.894531 157.21875 208.789062 156.964844 C 208.683594 156.710938 208.535156 156.488281 208.34375 156.296875 C 208.148438 156.105469 207.925781 155.957031 207.675781 155.851562 C 207.421875 155.746094 207.160156 155.695312 206.886719 155.695312 Z M 207.691406 159.273438 C 207.980469 159.035156 208.175781 158.734375 208.277344 158.375 C 208.378906 158.011719 208.363281 157.65625 208.238281 157.304688 C 208.113281 156.949219 207.894531 156.664062 207.589844 156.449219 C 207.285156 156.234375 206.941406 156.125 206.566406 156.125 C 206.292969 156.125 206.035156 156.1875 205.789062 156.308594 C 206.117188 156.039062 206.488281 155.90625 206.910156 155.90625 C 207.324219 155.90625 207.695312 156.035156 208.019531 156.292969 C 208.34375 156.546875 208.550781 156.878906 208.644531 157.28125 C 208.738281 157.683594 208.695312 158.070312 208.519531 158.445312 C 208.339844 158.816406 208.066406 159.09375 207.695312 159.277344 Z M 207.691406 159.273438 " fill-opacity="1" fill-rule="nonzero"/><path fill="#0c9aed" d="M 292.515625 153.632812 C 292.242188 153.632812 291.980469 153.683594 291.726562 153.789062 C 291.476562 153.894531 291.25 154.042969 291.058594 154.238281 C 290.863281 154.429688 290.714844 154.652344 290.613281 154.90625 C 290.507812 155.160156 290.453125 155.421875 290.453125 155.695312 C 290.453125 155.96875 290.507812 156.230469 290.613281 156.484375 C 290.714844 156.734375 290.863281 156.960938 291.058594 157.152344 C 291.25 157.347656 291.476562 157.496094 291.726562 157.597656 C 291.980469 157.703125 292.242188 157.757812 292.515625 157.757812 C 292.789062 157.757812 293.054688 157.703125 293.304688 157.597656 C 293.558594 157.496094 293.78125 157.347656 293.972656 157.152344 C 294.167969 156.960938 294.316406 156.734375 294.421875 156.484375 C 294.527344 156.230469 294.578125 155.96875 294.578125 155.695312 C 294.578125 155.421875 294.527344 155.160156 294.421875 154.90625 C 294.316406 154.652344 294.167969 154.429688 293.972656 154.238281 C 293.78125 154.042969 293.558594 153.894531 293.304688 153.789062 C 293.054688 153.683594 292.789062 153.632812 292.515625 153.632812 Z M 293.316406 157.210938 C 293.488281 157.074219 293.625 156.910156 293.734375 156.722656 C 293.847656 156.535156 293.917969 156.332031 293.953125 156.117188 C 293.988281 155.902344 293.984375 155.6875 293.941406 155.472656 C 293.894531 155.261719 293.816406 155.0625 293.695312 154.878906 C 293.578125 154.695312 293.433594 154.539062 293.257812 154.410156 C 293.082031 154.277344 292.890625 154.183594 292.679688 154.125 C 292.46875 154.070312 292.253906 154.050781 292.039062 154.070312 C 291.820312 154.089844 291.617188 154.148438 291.421875 154.246094 C 291.746094 153.976562 292.121094 153.84375 292.542969 153.847656 C 292.957031 153.84375 293.328125 153.96875 293.65625 154.226562 C 293.980469 154.480469 294.191406 154.8125 294.285156 155.21875 C 294.378906 155.621094 294.335938 156.011719 294.152344 156.386719 C 293.972656 156.757812 293.695312 157.035156 293.320312 157.214844 Z M 293.316406 157.210938 " fill-opacity="1" fill-rule="nonzero"/><path fill="#0c9aed" d="M 208.066406 175.492188 C 208.066406 175.925781 207.980469 176.34375 207.816406 176.746094 C 207.648438 177.144531 207.414062 177.5 207.105469 177.804688 C 206.800781 178.113281 206.445312 178.347656 206.046875 178.515625 C 205.644531 178.679688 205.226562 178.765625 204.792969 178.765625 C 204.359375 178.765625 203.941406 178.679688 203.542969 178.515625 C 203.140625 178.347656 202.789062 178.113281 202.480469 177.804688 C 202.175781 177.5 201.9375 177.144531 201.773438 176.746094 C 201.605469 176.34375 201.523438 175.925781 201.523438 175.492188 C 201.523438 175.058594 201.605469 174.640625 201.773438 174.242188 C 201.9375 173.839844 202.175781 173.488281 202.480469 173.179688 C 202.789062 172.875 203.140625 172.636719 203.542969 172.472656 C 203.941406 172.304688 204.359375 172.222656 204.792969 172.222656 C 205.226562 172.222656 205.644531 172.304688 206.046875 172.472656 C 206.445312 172.636719 206.800781 172.875 207.105469 173.179688 C 207.414062 173.488281 207.648438 173.839844 207.816406 174.242188 C 207.980469 174.640625 208.066406 175.058594 208.066406 175.492188 Z M 208.066406 175.492188 " fill-opacity="1" fill-rule="nonzero"/><path fill="#000000" d="M 304.425781 211.015625 C 304.425781 211.449219 304.34375 211.867188 304.179688 212.265625 C 304.011719 212.667969 303.777344 213.019531 303.46875 213.328125 C 303.164062 213.632812 302.808594 213.871094 302.40625 214.035156 C 302.007812 214.203125 301.589844 214.285156 301.15625 214.285156 C 300.722656 214.285156 300.304688 214.203125 299.90625 214.035156 C 299.503906 213.871094 299.152344 213.632812 298.84375 213.328125 C 298.539062 213.019531 298.300781 212.667969 298.136719 212.265625 C 297.96875 211.867188 297.886719 211.449219 297.886719 211.015625 C 297.886719 210.582031 297.96875 210.164062 298.136719 209.765625 C 298.300781 209.363281 298.539062 209.007812 298.84375 208.703125 C 299.152344 208.394531 299.503906 208.160156 299.90625 207.992188 C 300.304688 207.828125 300.722656 207.746094 301.15625 207.746094 C 301.589844 207.746094 302.007812 207.828125 302.40625 207.992188 C 302.808594 208.160156 303.164062 208.394531 303.46875 208.703125 C 303.777344 209.007812 304.011719 209.363281 304.179688 209.765625 C 304.34375 210.164062 304.425781 210.582031 304.425781 211.015625 Z M 304.425781 211.015625 " fill-opacity="1" fill-rule="nonzero"/><path fill="#0c9aed" d="M 195.035156 203.738281 C 194.644531 203.738281 194.261719 203.777344 193.878906 203.851562 C 193.496094 203.925781 193.128906 204.039062 192.769531 204.1875 C 192.410156 204.335938 192.066406 204.519531 191.746094 204.734375 C 191.421875 204.953125 191.121094 205.199219 190.847656 205.472656 C 190.570312 205.746094 190.324219 206.046875 190.109375 206.371094 C 189.894531 206.695312 189.710938 207.035156 189.5625 207.394531 C 189.414062 207.753906 189.300781 208.125 189.226562 208.503906 C 189.148438 208.886719 189.113281 209.273438 189.113281 209.660156 C 189.113281 209.273438 189.074219 208.886719 188.996094 208.503906 C 188.921875 208.125 188.808594 207.753906 188.660156 207.394531 C 188.511719 207.035156 188.328125 206.695312 188.113281 206.371094 C 187.898438 206.046875 187.652344 205.746094 187.375 205.472656 C 187.101562 205.199219 186.800781 204.953125 186.480469 204.734375 C 186.15625 204.519531 185.8125 204.335938 185.453125 204.1875 C 185.09375 204.039062 184.726562 203.925781 184.34375 203.851562 C 183.960938 203.777344 183.578125 203.738281 183.1875 203.738281 C 183.578125 203.738281 183.960938 203.699219 184.34375 203.625 C 184.726562 203.546875 185.09375 203.433594 185.453125 203.285156 C 185.8125 203.136719 186.15625 202.957031 186.480469 202.738281 C 186.800781 202.523438 187.101562 202.277344 187.375 202.003906 C 187.652344 201.726562 187.898438 201.429688 188.113281 201.105469 C 188.328125 200.78125 188.511719 200.441406 188.660156 200.082031 C 188.808594 199.722656 188.921875 199.351562 188.996094 198.96875 C 189.074219 198.589844 189.113281 198.203125 189.113281 197.8125 C 189.113281 198.203125 189.148438 198.589844 189.226562 198.96875 C 189.300781 199.351562 189.414062 199.722656 189.5625 200.082031 C 189.710938 200.441406 189.894531 200.78125 190.109375 201.105469 C 190.324219 201.429688 190.570312 201.726562 190.847656 202.003906 C 191.121094 202.277344 191.421875 202.523438 191.746094 202.738281 C 192.066406 202.957031 192.410156 203.136719 192.769531 203.285156 C 193.128906 203.433594 193.496094 203.546875 193.878906 203.625 C 194.261719 203.699219 194.644531 203.738281 195.035156 203.738281 Z M 195.035156 203.738281 " fill-opacity="1" fill-rule="nonzero"/><path fill="#0c9aed" d="M 249.542969 172.226562 C 249.542969 172.617188 249.507812 173 249.429688 173.382812 C 249.355469 173.761719 249.242188 174.132812 249.09375 174.492188 C 248.945312 174.851562 248.761719 175.195312 248.546875 175.515625 C 248.328125 175.839844 248.085938 176.140625 247.808594 176.414062 C 247.535156 176.691406 247.234375 176.9375 246.910156 177.152344 C 246.589844 177.367188 246.246094 177.550781 245.886719 177.699219 C 245.527344 177.847656 245.15625 177.960938 244.777344 178.035156 C 244.394531 178.113281 244.007812 178.148438 243.621094 178.148438 C 243.230469 178.148438 242.847656 178.113281 242.464844 178.035156 C 242.082031 177.960938 241.714844 177.847656 241.355469 177.699219 C 240.996094 177.550781 240.652344 177.367188 240.328125 177.152344 C 240.007812 176.9375 239.707031 176.691406 239.433594 176.414062 C 239.15625 176.140625 238.910156 175.839844 238.695312 175.515625 C 238.480469 175.195312 238.296875 174.851562 238.148438 174.492188 C 238 174.132812 237.886719 173.761719 237.8125 173.382812 C 237.734375 173 237.695312 172.617188 237.695312 172.226562 C 237.695312 171.835938 237.734375 171.453125 237.8125 171.070312 C 237.886719 170.691406 238 170.320312 238.148438 169.960938 C 238.296875 169.601562 238.480469 169.257812 238.695312 168.9375 C 238.910156 168.613281 239.15625 168.3125 239.433594 168.039062 C 239.707031 167.761719 240.007812 167.515625 240.328125 167.300781 C 240.652344 167.085938 240.996094 166.902344 241.355469 166.753906 C 241.714844 166.605469 242.082031 166.492188 242.464844 166.417969 C 242.847656 166.339844 243.230469 166.304688 243.621094 166.304688 C 244.007812 166.304688 244.394531 166.339844 244.777344 166.417969 C 245.15625 166.492188 245.527344 166.605469 245.886719 166.753906 C 246.246094 166.902344 246.589844 167.085938 246.910156 167.300781 C 247.234375 167.515625 247.535156 167.761719 247.808594 168.039062 C 248.085938 168.3125 248.328125 168.613281 248.546875 168.9375 C 248.761719 169.257812 248.945312 169.601562 249.09375 169.960938 C 249.242188 170.320312 249.355469 170.691406 249.429688 171.070312 C 249.507812 171.453125 249.542969 171.835938 249.542969 172.226562 Z M 249.542969 172.226562 " fill-opacity="1" fill-rule="nonzero"/><path fill="#000000" d="M 316.578125 189.246094 C 316.300781 189.246094 316.035156 189.296875 315.777344 189.402344 C 315.523438 189.511719 315.296875 189.660156 315.101562 189.855469 C 314.90625 190.050781 314.753906 190.277344 314.648438 190.535156 C 314.542969 190.789062 314.488281 191.054688 314.488281 191.332031 C 314.488281 191.054688 314.4375 190.789062 314.328125 190.53125 C 314.222656 190.277344 314.074219 190.050781 313.875 189.855469 C 313.679688 189.660156 313.453125 189.507812 313.199219 189.402344 C 312.941406 189.296875 312.675781 189.246094 312.398438 189.246094 C 312.675781 189.246094 312.941406 189.191406 313.199219 189.085938 C 313.453125 188.980469 313.679688 188.828125 313.875 188.632812 C 314.074219 188.4375 314.222656 188.210938 314.328125 187.953125 C 314.4375 187.699219 314.488281 187.429688 314.488281 187.152344 C 314.488281 187.429688 314.542969 187.695312 314.648438 187.953125 C 314.753906 188.210938 314.902344 188.4375 315.097656 188.632812 C 315.296875 188.828125 315.519531 188.980469 315.777344 189.085938 C 316.035156 189.191406 316.300781 189.246094 316.578125 189.246094 Z M 316.578125 189.246094 " fill-opacity="1" fill-rule="nonzero"/><path fill="#000000" d="M 255.078125 156.191406 C 254.800781 156.191406 254.535156 156.246094 254.277344 156.351562 C 254.023438 156.457031 253.796875 156.609375 253.597656 156.804688 C 253.402344 157 253.25 157.226562 253.144531 157.484375 C 253.039062 157.738281 252.988281 158.007812 252.988281 158.285156 C 252.988281 158.007812 252.933594 157.738281 252.828125 157.484375 C 252.722656 157.226562 252.570312 157 252.375 156.804688 C 252.179688 156.609375 251.953125 156.457031 251.699219 156.351562 C 251.441406 156.246094 251.175781 156.191406 250.898438 156.191406 C 251.175781 156.191406 251.441406 156.140625 251.699219 156.035156 C 251.953125 155.925781 252.179688 155.777344 252.375 155.582031 C 252.570312 155.386719 252.722656 155.160156 252.828125 154.902344 C 252.933594 154.648438 252.988281 154.382812 252.988281 154.105469 C 252.988281 154.382812 253.039062 154.648438 253.148438 154.902344 C 253.253906 155.160156 253.40625 155.386719 253.601562 155.582031 C 253.796875 155.777344 254.023438 155.925781 254.277344 156.035156 C 254.535156 156.140625 254.800781 156.191406 255.078125 156.191406 Z M 255.078125 156.191406 " fill-opacity="1" fill-rule="nonzero"/><path fill="#000000" d="M 180.578125 167.089844 C 180.578125 167.367188 180.523438 167.632812 180.417969 167.886719 C 180.3125 168.144531 180.160156 168.371094 179.964844 168.566406 C 179.769531 168.761719 179.542969 168.910156 179.289062 169.019531 C 179.03125 169.125 178.765625 169.175781 178.488281 169.175781 C 178.210938 169.175781 177.945312 169.125 177.6875 169.019531 C 177.433594 168.910156 177.207031 168.761719 177.011719 168.566406 C 176.816406 168.371094 176.664062 168.144531 176.558594 167.886719 C 176.453125 167.632812 176.398438 167.367188 176.398438 167.089844 C 176.398438 166.8125 176.453125 166.546875 176.558594 166.289062 C 176.664062 166.035156 176.816406 165.808594 177.011719 165.613281 C 177.207031 165.417969 177.433594 165.265625 177.6875 165.160156 C 177.945312 165.054688 178.210938 165 178.488281 165 C 178.765625 165 179.03125 165.054688 179.289062 165.160156 C 179.542969 165.265625 179.769531 165.417969 179.964844 165.613281 C 180.160156 165.808594 180.3125 166.035156 180.417969 166.289062 C 180.523438 166.546875 180.578125 166.8125 180.578125 167.089844 Z M 180.578125 167.089844 " fill-opacity="1" fill-rule="nonzero"/><path fill="#000000" d="M 294.605469 167.089844 C 294.328125 167.089844 294.0625 167.140625 293.804688 167.25 C 293.546875 167.355469 293.324219 167.503906 293.125 167.703125 C 292.929688 167.898438 292.78125 168.125 292.675781 168.378906 C 292.570312 168.636719 292.515625 168.902344 292.515625 169.179688 C 292.515625 168.902344 292.464844 168.636719 292.355469 168.378906 C 292.25 168.125 292.101562 167.898438 291.902344 167.703125 C 291.707031 167.503906 291.480469 167.355469 291.226562 167.25 C 290.96875 167.140625 290.703125 167.089844 290.425781 167.089844 C 290.703125 167.089844 290.96875 167.035156 291.226562 166.929688 C 291.480469 166.824219 291.707031 166.675781 291.902344 166.480469 C 292.101562 166.28125 292.25 166.058594 292.355469 165.800781 C 292.464844 165.542969 292.515625 165.277344 292.515625 165 C 292.515625 165.277344 292.570312 165.542969 292.675781 165.800781 C 292.78125 166.054688 292.933594 166.28125 293.128906 166.476562 C 293.324219 166.671875 293.550781 166.824219 293.804688 166.929688 C 294.0625 167.035156 294.328125 167.089844 294.605469 167.089844 Z M 294.605469 167.089844 " fill-opacity="1" fill-rule="nonzero"/><path fill="#000000" d="M 303.246094 172.183594 C 303.246094 172.457031 303.191406 172.726562 303.085938 172.980469 C 302.980469 173.238281 302.828125 173.460938 302.632812 173.65625 C 302.4375 173.855469 302.210938 174.003906 301.957031 174.109375 C 301.699219 174.214844 301.433594 174.269531 301.15625 174.269531 C 300.878906 174.269531 300.613281 174.214844 300.359375 174.109375 C 300.101562 174.003906 299.875 173.855469 299.679688 173.65625 C 299.484375 173.460938 299.332031 173.238281 299.226562 172.980469 C 299.121094 172.726562 299.070312 172.457031 299.070312 172.183594 C 299.070312 171.90625 299.121094 171.636719 299.226562 171.382812 C 299.332031 171.125 299.484375 170.902344 299.679688 170.707031 C 299.875 170.507812 300.101562 170.359375 300.359375 170.253906 C 300.613281 170.148438 300.878906 170.09375 301.15625 170.09375 C 301.433594 170.09375 301.699219 170.148438 301.957031 170.253906 C 302.210938 170.359375 302.4375 170.507812 302.632812 170.707031 C 302.828125 170.902344 302.980469 171.125 303.085938 171.382812 C 303.191406 171.636719 303.246094 171.90625 303.246094 172.183594 Z M 303.246094 172.183594 " fill-opacity="1" fill-rule="nonzero"/><path fill="#000000" d="M 232.292969 195.757812 C 221.148438 196.878906 208.71875 196.90625 204.824219 196.90625 L 232.257812 193.558594 C 232.113281 193.878906 231.894531 194.136719 231.601562 194.324219 C 231.304688 194.515625 230.984375 194.609375 230.632812 194.609375 C 231 194.609375 231.335938 194.714844 231.640625 194.925781 C 231.945312 195.132812 232.164062 195.410156 232.292969 195.757812 Z M 232.292969 195.757812 " fill-opacity="1" fill-rule="nonzero"/><path fill="#000000" d="M 234.1875 194.609375 C 233.828125 194.609375 233.5 194.511719 233.203125 194.3125 C 232.90625 194.117188 232.6875 193.851562 232.546875 193.523438 L 250.425781 191.339844 C 244.769531 194.054688 238.808594 195.515625 232.535156 195.730469 C 232.671875 195.390625 232.890625 195.121094 233.191406 194.917969 C 233.492188 194.714844 233.824219 194.609375 234.1875 194.609375 Z M 234.1875 194.609375 " fill-opacity="1" fill-rule="nonzero"/><g fill="#000000" fill-opacity="1"><g transform="translate(135.33472, 257.024757)"><g><path d="M 3.53125 -7.5 L 7.140625 0 L 5.828125 0 L 5.1875 -1.46875 L 1.75 -1.46875 L 1.109375 0 L -0.15625 0 L 3.421875 -7.5 Z M 3.03125 -4.3125 L 2.203125 -2.5 L 4.734375 -2.5 L 3.9375 -4.296875 L 3.5 -5.328125 L 3.46875 -5.328125 Z M 3.03125 -4.3125 "/></g></g></g><g fill="#000000" fill-opacity="1"><g transform="translate(150.46211, 257.024757)"><g><path d="M 2.34375 0.109375 C 1.695312 0.109375 1.253906 -0.0820312 1.015625 -0.46875 C 0.773438 -0.851562 0.65625 -1.382812 0.65625 -2.0625 L 0.65625 -4.671875 L 1.75 -4.671875 L 1.75 -2.328125 C 1.75 -1.941406 1.769531 -1.640625 1.8125 -1.421875 C 1.863281 -1.210938 1.953125 -1.054688 2.078125 -0.953125 C 2.210938 -0.859375 2.410156 -0.8125 2.671875 -0.8125 C 2.867188 -0.8125 3.054688 -0.863281 3.234375 -0.96875 C 3.410156 -1.070312 3.550781 -1.21875 3.65625 -1.40625 C 3.769531 -1.59375 3.828125 -1.800781 3.828125 -2.03125 L 3.828125 -4.671875 L 4.921875 -4.671875 L 4.921875 0 L 4.03125 0 L 3.90625 -0.6875 C 3.726562 -0.414062 3.515625 -0.210938 3.265625 -0.078125 C 3.015625 0.046875 2.707031 0.109375 2.34375 0.109375 Z M 2.34375 0.109375 "/></g></g></g><g fill="#000000" fill-opacity="1"><g transform="translate(164.27539, 257.024757)"><g><path d="M 1.125 -3.78125 L 0.3125 -3.78125 L 0.3125 -4.671875 L 1.125 -4.671875 L 1.125 -6.578125 L 2.234375 -6.828125 L 2.234375 -4.671875 L 3.328125 -4.671875 L 3.328125 -3.78125 L 2.234375 -3.78125 L 2.234375 0 L 1.125 0 Z M 1.125 -3.78125 "/></g></g></g><g fill="#000000" fill-opacity="1"><g transform="translate(175.918881, 257.024757)"><g><path d="M 2.90625 0.109375 C 2.425781 0.109375 2 0 1.625 -0.21875 C 1.25 -0.4375 0.957031 -0.734375 0.75 -1.109375 C 0.550781 -1.484375 0.453125 -1.898438 0.453125 -2.359375 C 0.453125 -2.804688 0.550781 -3.210938 0.75 -3.578125 C 0.945312 -3.953125 1.234375 -4.25 1.609375 -4.46875 C 1.984375 -4.6875 2.414062 -4.796875 2.90625 -4.796875 C 3.394531 -4.796875 3.820312 -4.6875 4.1875 -4.46875 C 4.5625 -4.25 4.847656 -3.953125 5.046875 -3.578125 C 5.242188 -3.210938 5.34375 -2.804688 5.34375 -2.359375 C 5.34375 -1.898438 5.238281 -1.484375 5.03125 -1.109375 C 4.832031 -0.734375 4.546875 -0.4375 4.171875 -0.21875 C 3.804688 0 3.382812 0.109375 2.90625 0.109375 Z M 2.9375 -0.796875 C 3.332031 -0.796875 3.640625 -0.941406 3.859375 -1.234375 C 4.085938 -1.523438 4.203125 -1.890625 4.203125 -2.328125 C 4.203125 -2.773438 4.078125 -3.148438 3.828125 -3.453125 C 3.585938 -3.753906 3.269531 -3.90625 2.875 -3.90625 C 2.488281 -3.90625 2.175781 -3.753906 1.9375 -3.453125 C 1.707031 -3.148438 1.59375 -2.773438 1.59375 -2.328125 C 1.59375 -1.898438 1.71875 -1.535156 1.96875 -1.234375 C 2.21875 -0.941406 2.539062 -0.796875 2.9375 -0.796875 Z M 2.9375 -0.796875 "/></g></g></g><g fill="#000000" fill-opacity="1"><g transform="translate(189.864593, 257.024757)"><g/></g></g><g fill="#000000" fill-opacity="1"><g transform="translate(200.509769, 257.024757)"><g><path d="M 2.796875 0.109375 C 2.367188 0.109375 1.976562 0.0078125 1.625 -0.1875 C 1.269531 -0.394531 0.984375 -0.679688 0.765625 -1.046875 C 0.554688 -1.421875 0.453125 -1.859375 0.453125 -2.359375 C 0.453125 -3.097656 0.65625 -3.6875 1.0625 -4.125 C 1.476562 -4.570312 2.039062 -4.796875 2.75 -4.796875 C 3.144531 -4.796875 3.503906 -4.695312 3.828125 -4.5 C 4.148438 -4.3125 4.375 -4.082031 4.5 -3.8125 L 4.4375 -4.609375 L 4.4375 -7.484375 L 5.515625 -7.484375 L 5.515625 0 L 4.46875 0 L 4.453125 -0.828125 C 4.335938 -0.578125 4.125 -0.359375 3.8125 -0.171875 C 3.507812 0.015625 3.171875 0.109375 2.796875 0.109375 Z M 2.96875 -0.828125 C 3.363281 -0.828125 3.691406 -0.957031 3.953125 -1.21875 C 4.210938 -1.488281 4.34375 -1.84375 4.34375 -2.28125 L 4.34375 -2.359375 C 4.34375 -2.648438 4.28125 -2.910156 4.15625 -3.140625 C 4.039062 -3.367188 3.878906 -3.546875 3.671875 -3.671875 C 3.460938 -3.804688 3.226562 -3.875 2.96875 -3.875 C 2.539062 -3.875 2.207031 -3.734375 1.96875 -3.453125 C 1.726562 -3.171875 1.609375 -2.804688 1.609375 -2.359375 C 1.609375 -1.898438 1.722656 -1.53125 1.953125 -1.25 C 2.191406 -0.96875 2.53125 -0.828125 2.96875 -0.828125 Z M 2.96875 -0.828125 "/></g></g></g><g fill="#000000" fill-opacity="1"><g transform="translate(214.913892, 257.024757)"><g><path d="M 2.9375 0.109375 C 2.375 0.109375 1.90625 0 1.53125 -0.21875 C 1.164062 -0.445312 0.894531 -0.742188 0.71875 -1.109375 C 0.539062 -1.484375 0.453125 -1.890625 0.453125 -2.328125 C 0.453125 -2.828125 0.550781 -3.265625 0.75 -3.640625 C 0.957031 -4.015625 1.242188 -4.300781 1.609375 -4.5 C 1.984375 -4.695312 2.398438 -4.796875 2.859375 -4.796875 C 3.578125 -4.796875 4.109375 -4.597656 4.453125 -4.203125 C 4.804688 -3.804688 4.984375 -3.25 4.984375 -2.53125 C 4.984375 -2.34375 4.976562 -2.148438 4.96875 -1.953125 L 1.59375 -1.953125 C 1.675781 -1.535156 1.828125 -1.234375 2.046875 -1.046875 C 2.265625 -0.867188 2.570312 -0.78125 2.96875 -0.78125 C 3.289062 -0.78125 3.554688 -0.804688 3.765625 -0.859375 C 3.972656 -0.921875 4.164062 -1 4.34375 -1.09375 L 4.6875 -0.3125 C 4.519531 -0.195312 4.289062 -0.0976562 4 -0.015625 C 3.707031 0.0664062 3.351562 0.109375 2.9375 0.109375 Z M 3.921875 -2.71875 C 3.929688 -3.144531 3.835938 -3.441406 3.640625 -3.609375 C 3.453125 -3.785156 3.179688 -3.875 2.828125 -3.875 C 2.117188 -3.875 1.707031 -3.488281 1.59375 -2.71875 Z M 3.921875 -2.71875 "/></g></g></g><g fill="#000000" fill-opacity="1"><g transform="translate(228.482694, 257.024757)"><g><path d="M 1.125 -3.78125 L 0.3125 -3.78125 L 0.3125 -4.671875 L 1.125 -4.671875 L 1.125 -6.578125 L 2.234375 -6.828125 L 2.234375 -4.671875 L 3.328125 -4.671875 L 3.328125 -3.78125 L 2.234375 -3.78125 L 2.234375 0 L 1.125 0 Z M 1.125 -3.78125 "/></g></g></g><g fill="#000000" fill-opacity="1"><g transform="translate(240.126181, 257.024757)"><g><path d="M 2.796875 0.109375 C 2.367188 0.109375 1.976562 0.0078125 1.625 -0.1875 C 1.269531 -0.394531 0.984375 -0.679688 0.765625 -1.046875 C 0.554688 -1.421875 0.453125 -1.859375 0.453125 -2.359375 C 0.453125 -2.847656 0.546875 -3.273438 0.734375 -3.640625 C 0.921875 -4.003906 1.1875 -4.285156 1.53125 -4.484375 C 1.875 -4.691406 2.28125 -4.796875 2.75 -4.796875 C 3.019531 -4.796875 3.273438 -4.75 3.515625 -4.65625 C 3.753906 -4.5625 3.953125 -4.441406 4.109375 -4.296875 C 4.273438 -4.160156 4.382812 -4.023438 4.4375 -3.890625 L 4.46875 -4.671875 L 5.515625 -4.671875 L 5.515625 0 L 4.46875 0 L 4.453125 -0.828125 C 4.335938 -0.578125 4.125 -0.359375 3.8125 -0.171875 C 3.507812 0.015625 3.171875 0.109375 2.796875 0.109375 Z M 2.96875 -0.8125 C 3.363281 -0.8125 3.691406 -0.945312 3.953125 -1.21875 C 4.210938 -1.488281 4.34375 -1.835938 4.34375 -2.265625 L 4.34375 -2.34375 C 4.34375 -2.632812 4.28125 -2.894531 4.15625 -3.125 C 4.039062 -3.351562 3.878906 -3.53125 3.671875 -3.65625 C 3.460938 -3.789062 3.226562 -3.859375 2.96875 -3.859375 C 2.539062 -3.859375 2.207031 -3.71875 1.96875 -3.4375 C 1.726562 -3.15625 1.609375 -2.789062 1.609375 -2.34375 C 1.609375 -1.882812 1.722656 -1.515625 1.953125 -1.234375 C 2.191406 -0.953125 2.53125 -0.8125 2.96875 -0.8125 Z M 2.96875 -0.8125 "/></g></g></g><g fill="#000000" fill-opacity="1"><g transform="translate(254.540485, 257.024757)"><g><path d="M 0.8125 -4.671875 L 1.953125 -4.671875 L 1.953125 0 L 0.8125 0 Z M 1.359375 -5.546875 C 1.148438 -5.546875 0.972656 -5.617188 0.828125 -5.765625 C 0.691406 -5.910156 0.625 -6.085938 0.625 -6.296875 C 0.625 -6.484375 0.691406 -6.644531 0.828125 -6.78125 C 0.972656 -6.914062 1.148438 -6.984375 1.359375 -6.984375 C 1.566406 -6.984375 1.738281 -6.914062 1.875 -6.78125 C 2.019531 -6.644531 2.09375 -6.484375 2.09375 -6.296875 C 2.09375 -6.085938 2.023438 -5.910156 1.890625 -5.765625 C 1.753906 -5.617188 1.578125 -5.546875 1.359375 -5.546875 Z M 1.359375 -5.546875 "/></g></g></g><g fill="#000000" fill-opacity="1"><g transform="translate(265.440339, 257.024757)"><g><path d="M 0.8125 -7.484375 L 1.90625 -7.484375 L 1.90625 0 L 0.8125 0 Z M 0.8125 -7.484375 "/></g></g></g><g fill="#000000" fill-opacity="1"><g transform="translate(276.319818, 257.024757)"><g><path d="M 0.8125 -4.671875 L 1.953125 -4.671875 L 1.953125 0 L 0.8125 0 Z M 1.359375 -5.546875 C 1.148438 -5.546875 0.972656 -5.617188 0.828125 -5.765625 C 0.691406 -5.910156 0.625 -6.085938 0.625 -6.296875 C 0.625 -6.484375 0.691406 -6.644531 0.828125 -6.78125 C 0.972656 -6.914062 1.148438 -6.984375 1.359375 -6.984375 C 1.566406 -6.984375 1.738281 -6.914062 1.875 -6.78125 C 2.019531 -6.644531 2.09375 -6.484375 2.09375 -6.296875 C 2.09375 -6.085938 2.023438 -5.910156 1.890625 -5.765625 C 1.753906 -5.617188 1.578125 -5.546875 1.359375 -5.546875 Z M 1.359375 -5.546875 "/></g></g></g><g fill="#000000" fill-opacity="1"><g transform="translate(287.219672, 257.024757)"><g><path d="M 0.71875 -4.671875 L 1.796875 -4.671875 L 1.8125 -3.8125 C 1.9375 -4.101562 2.140625 -4.335938 2.421875 -4.515625 C 2.703125 -4.703125 3.03125 -4.796875 3.40625 -4.796875 C 3.882812 -4.796875 4.253906 -4.695312 4.515625 -4.5 C 4.773438 -4.300781 4.945312 -4.019531 5.03125 -3.65625 C 5.125 -3.300781 5.171875 -2.832031 5.171875 -2.25 L 5.171875 0 L 4.0625 0 L 4.0625 -2.21875 C 4.0625 -2.8125 4.003906 -3.238281 3.890625 -3.5 C 3.773438 -3.757812 3.535156 -3.890625 3.171875 -3.890625 C 2.972656 -3.890625 2.765625 -3.828125 2.546875 -3.703125 C 2.335938 -3.578125 2.164062 -3.394531 2.03125 -3.15625 C 1.894531 -2.914062 1.828125 -2.640625 1.828125 -2.328125 L 1.828125 0 L 0.71875 0 Z M 0.71875 -4.671875 "/></g></g></g><g fill="#000000" fill-opacity="1"><g transform="translate(301.226517, 257.024757)"><g><path d="M 3 2.4375 C 2.644531 2.4375 2.300781 2.390625 1.96875 2.296875 C 1.632812 2.203125 1.394531 2.113281 1.25 2.03125 L 1.5 1.015625 C 1.945312 1.304688 2.4375 1.453125 2.96875 1.453125 C 3.375 1.453125 3.710938 1.351562 3.984375 1.15625 C 4.265625 0.957031 4.410156 0.578125 4.421875 0.015625 L 4.421875 -0.828125 C 4.273438 -0.554688 4.039062 -0.332031 3.71875 -0.15625 C 3.40625 0.0195312 3.054688 0.109375 2.671875 0.109375 C 2.265625 0.109375 1.890625 0.0078125 1.546875 -0.1875 C 1.210938 -0.394531 0.945312 -0.6875 0.75 -1.0625 C 0.550781 -1.4375 0.453125 -1.867188 0.453125 -2.359375 C 0.453125 -2.835938 0.546875 -3.257812 0.734375 -3.625 C 0.921875 -4 1.1875 -4.285156 1.53125 -4.484375 C 1.875 -4.691406 2.273438 -4.796875 2.734375 -4.796875 C 3.003906 -4.796875 3.257812 -4.75 3.5 -4.65625 C 3.738281 -4.5625 3.941406 -4.441406 4.109375 -4.296875 C 4.273438 -4.160156 4.382812 -4.023438 4.4375 -3.890625 L 4.46875 -4.671875 L 5.5 -4.671875 L 5.5 -0.03125 C 5.5 0.757812 5.296875 1.367188 4.890625 1.796875 C 4.484375 2.222656 3.851562 2.4375 3 2.4375 Z M 2.96875 -0.828125 C 3.363281 -0.828125 3.691406 -0.957031 3.953125 -1.21875 C 4.210938 -1.488281 4.34375 -1.84375 4.34375 -2.28125 L 4.34375 -2.359375 C 4.34375 -2.648438 4.28125 -2.910156 4.15625 -3.140625 C 4.039062 -3.367188 3.878906 -3.546875 3.671875 -3.671875 C 3.460938 -3.804688 3.226562 -3.875 2.96875 -3.875 C 2.539062 -3.875 2.207031 -3.734375 1.96875 -3.453125 C 1.726562 -3.171875 1.609375 -2.804688 1.609375 -2.359375 C 1.609375 -1.898438 1.722656 -1.53125 1.953125 -1.25 C 2.191406 -0.96875 2.53125 -0.828125 2.96875 -0.828125 Z M 2.96875 -0.828125 "/></g></g></g><g fill="#000000" fill-opacity="1"><g transform="translate(135.231249, 240.952316)"><g><path d="M 10.515625 0 L 7.796875 0 L 4.828125 -4.765625 L 3.828125 -4.03125 L 3.828125 0 L 1.421875 0 L 1.421875 -11.3125 L 3.828125 -11.3125 L 3.828125 -6.140625 C 3.984375 -6.359375 4.140625 -6.578125 4.296875 -6.796875 C 4.453125 -7.015625 4.609375 -7.238281 4.765625 -7.46875 L 7.828125 -11.3125 L 10.484375 -11.3125 L 6.546875 -6.3125 Z M 10.515625 0 "/></g></g></g><g fill="#000000" fill-opacity="1"><g transform="translate(145.748157, 240.952316)"><g><path d="M 8.34375 0 L 7.53125 -2.6875 L 3.40625 -2.6875 L 2.578125 0 L 0 0 L 3.984375 -11.359375 L 6.921875 -11.359375 L 10.9375 0 Z M 6.953125 -4.703125 L 6.140625 -7.328125 C 6.085938 -7.503906 6.015625 -7.726562 5.921875 -8 C 5.835938 -8.28125 5.753906 -8.5625 5.671875 -8.84375 C 5.585938 -9.132812 5.519531 -9.382812 5.46875 -9.59375 C 5.414062 -9.382812 5.34375 -9.125 5.25 -8.8125 C 5.164062 -8.5 5.082031 -8.203125 5 -7.921875 C 4.914062 -7.648438 4.851562 -7.453125 4.8125 -7.328125 L 4 -4.703125 Z M 6.953125 -4.703125 "/></g></g></g><g fill="#000000" fill-opacity="1"><g transform="translate(156.674915, 240.952316)"><g><path d="M 1.421875 -11.3125 L 4.9375 -11.3125 C 6.445312 -11.3125 7.585938 -11.097656 8.359375 -10.671875 C 9.128906 -10.253906 9.515625 -9.515625 9.515625 -8.453125 C 9.515625 -8.023438 9.445312 -7.632812 9.3125 -7.28125 C 9.175781 -6.9375 8.976562 -6.65625 8.71875 -6.4375 C 8.46875 -6.21875 8.15625 -6.070312 7.78125 -6 L 7.78125 -5.921875 C 8.15625 -5.847656 8.492188 -5.71875 8.796875 -5.53125 C 9.109375 -5.34375 9.351562 -5.066406 9.53125 -4.703125 C 9.71875 -4.347656 9.8125 -3.875 9.8125 -3.28125 C 9.8125 -2.59375 9.640625 -2.003906 9.296875 -1.515625 C 8.960938 -1.023438 8.484375 -0.648438 7.859375 -0.390625 C 7.242188 -0.128906 6.507812 0 5.65625 0 L 1.421875 0 Z M 3.828125 -6.828125 L 5.21875 -6.828125 C 5.914062 -6.828125 6.394531 -6.9375 6.65625 -7.15625 C 6.925781 -7.375 7.0625 -7.695312 7.0625 -8.125 C 7.0625 -8.5625 6.898438 -8.875 6.578125 -9.0625 C 6.265625 -9.25 5.765625 -9.34375 5.078125 -9.34375 L 3.828125 -9.34375 Z M 3.828125 -4.921875 L 3.828125 -1.984375 L 5.390625 -1.984375 C 6.109375 -1.984375 6.609375 -2.117188 6.890625 -2.390625 C 7.171875 -2.671875 7.3125 -3.046875 7.3125 -3.515625 C 7.3125 -3.796875 7.25 -4.039062 7.125 -4.25 C 7.007812 -4.46875 6.804688 -4.632812 6.515625 -4.75 C 6.222656 -4.863281 5.820312 -4.921875 5.3125 -4.921875 Z M 3.828125 -4.921875 "/></g></g></g><g fill="#000000" fill-opacity="1"><g transform="translate(167.315551, 240.952316)"><g><path d="M 7.9375 0 L 1.421875 0 L 1.421875 -11.3125 L 7.9375 -11.3125 L 7.9375 -9.34375 L 3.828125 -9.34375 L 3.828125 -6.859375 L 7.65625 -6.859375 L 7.65625 -4.890625 L 3.828125 -4.890625 L 3.828125 -1.984375 L 7.9375 -1.984375 Z M 7.9375 0 "/></g></g></g><g fill="#000000" fill-opacity="1"><g transform="translate(176.185325, 240.952316)"><g/></g></g><g fill="#000000" fill-opacity="1"><g transform="translate(180.299292, 240.952316)"><g><path d="M 5.78125 0 L 3.390625 0 L 3.390625 -9.3125 L 0.3125 -9.3125 L 0.3125 -11.3125 L 8.859375 -11.3125 L 8.859375 -9.3125 L 5.78125 -9.3125 Z M 5.78125 0 "/></g></g></g><g fill="#000000" fill-opacity="1"><g transform="translate(189.470654, 240.952316)"><g><path d="M 1.421875 0 L 1.421875 -11.3125 L 3.828125 -11.3125 L 3.828125 0 Z M 1.421875 0 "/></g></g></g><g fill="#000000" fill-opacity="1"><g transform="translate(194.713641, 240.952316)"><g><path d="M 11.453125 0 L 8.40625 0 L 3.484375 -8.5625 L 3.421875 -8.5625 C 3.441406 -8.195312 3.457031 -7.832031 3.46875 -7.46875 C 3.488281 -7.113281 3.503906 -6.753906 3.515625 -6.390625 C 3.535156 -6.035156 3.550781 -5.679688 3.5625 -5.328125 L 3.5625 0 L 1.421875 0 L 1.421875 -11.3125 L 4.453125 -11.3125 L 9.359375 -2.84375 L 9.421875 -2.84375 C 9.410156 -3.1875 9.394531 -3.53125 9.375 -3.875 C 9.363281 -4.226562 9.347656 -4.578125 9.328125 -4.921875 C 9.316406 -5.265625 9.304688 -5.609375 9.296875 -5.953125 L 9.296875 -11.3125 L 11.453125 -11.3125 Z M 11.453125 0 "/></g></g></g><g fill="#000000" fill-opacity="1"><g transform="translate(207.58912, 240.952316)"><g><path d="M 5.78125 0 L 3.390625 0 L 3.390625 -9.3125 L 0.3125 -9.3125 L 0.3125 -11.3125 L 8.859375 -11.3125 L 8.859375 -9.3125 L 5.78125 -9.3125 Z M 5.78125 0 "/></g></g></g><g fill="#000000" fill-opacity="1"><g transform="translate(216.760482, 240.952316)"><g><path d="M 4.90625 -11.46875 C 5.519531 -11.46875 6.0625 -11.375 6.53125 -11.1875 C 7.007812 -11 7.382812 -10.71875 7.65625 -10.34375 C 7.9375 -9.976562 8.078125 -9.535156 8.078125 -9.015625 C 8.078125 -8.285156 7.859375 -7.671875 7.421875 -7.171875 C 6.992188 -6.679688 6.457031 -6.25 5.8125 -5.875 L 8.015625 -3.734375 C 8.234375 -4.085938 8.414062 -4.460938 8.5625 -4.859375 C 8.71875 -5.265625 8.851562 -5.664062 8.96875 -6.0625 L 11.421875 -6.0625 C 11.265625 -5.46875 11.03125 -4.832031 10.71875 -4.15625 C 10.414062 -3.488281 10.023438 -2.859375 9.546875 -2.265625 L 11.890625 0 L 8.96875 0 L 8.078125 -0.875 C 7.773438 -0.664062 7.445312 -0.484375 7.09375 -0.328125 C 6.75 -0.171875 6.378906 -0.0507812 5.984375 0.03125 C 5.585938 0.113281 5.171875 0.15625 4.734375 0.15625 C 3.878906 0.15625 3.144531 0.0195312 2.53125 -0.25 C 1.914062 -0.519531 1.445312 -0.894531 1.125 -1.375 C 0.800781 -1.851562 0.640625 -2.414062 0.640625 -3.0625 C 0.640625 -3.59375 0.71875 -4.050781 0.875 -4.4375 C 1.039062 -4.820312 1.28125 -5.160156 1.59375 -5.453125 C 1.90625 -5.742188 2.273438 -6.015625 2.703125 -6.265625 C 2.429688 -6.578125 2.210938 -6.875 2.046875 -7.15625 C 1.890625 -7.4375 1.773438 -7.710938 1.703125 -7.984375 C 1.628906 -8.265625 1.59375 -8.554688 1.59375 -8.859375 C 1.59375 -9.390625 1.734375 -9.847656 2.015625 -10.234375 C 2.296875 -10.628906 2.6875 -10.929688 3.1875 -11.140625 C 3.6875 -11.359375 4.257812 -11.46875 4.90625 -11.46875 Z M 4.078125 -4.84375 C 3.890625 -4.695312 3.71875 -4.539062 3.5625 -4.375 C 3.414062 -4.21875 3.304688 -4.050781 3.234375 -3.875 C 3.160156 -3.695312 3.125 -3.5 3.125 -3.28125 C 3.125 -2.820312 3.289062 -2.460938 3.625 -2.203125 C 3.96875 -1.953125 4.390625 -1.828125 4.890625 -1.828125 C 5.234375 -1.828125 5.550781 -1.867188 5.84375 -1.953125 C 6.144531 -2.035156 6.414062 -2.148438 6.65625 -2.296875 Z M 4.890625 -9.640625 C 4.628906 -9.640625 4.378906 -9.570312 4.140625 -9.4375 C 3.898438 -9.3125 3.78125 -9.066406 3.78125 -8.703125 C 3.78125 -8.441406 3.847656 -8.1875 3.984375 -7.9375 C 4.117188 -7.695312 4.296875 -7.445312 4.515625 -7.1875 C 4.960938 -7.4375 5.300781 -7.679688 5.53125 -7.921875 C 5.769531 -8.171875 5.890625 -8.453125 5.890625 -8.765625 C 5.890625 -9.078125 5.78125 -9.300781 5.5625 -9.4375 C 5.351562 -9.570312 5.128906 -9.640625 4.890625 -9.640625 Z M 4.890625 -9.640625 "/></g></g></g><g fill="#000000" fill-opacity="1"><g transform="translate(228.638402, 240.952316)"><g><path d="M 1.421875 0 L 1.421875 -11.3125 L 3.828125 -11.3125 L 3.828125 -1.984375 L 8.40625 -1.984375 L 8.40625 0 Z M 1.421875 0 "/></g></g></g><g fill="#000000" fill-opacity="1"><g transform="translate(237.585506, 240.952316)"><g><path d="M 7.9375 0 L 1.421875 0 L 1.421875 -11.3125 L 7.9375 -11.3125 L 7.9375 -9.34375 L 3.828125 -9.34375 L 3.828125 -6.859375 L 7.65625 -6.859375 L 7.65625 -4.890625 L 3.828125 -4.890625 L 3.828125 -1.984375 L 7.9375 -1.984375 Z M 7.9375 0 "/></g></g></g><g fill="#000000" fill-opacity="1"><g transform="translate(246.45528, 240.952316)"><g><path d="M 8.34375 0 L 7.53125 -2.6875 L 3.40625 -2.6875 L 2.578125 0 L 0 0 L 3.984375 -11.359375 L 6.921875 -11.359375 L 10.9375 0 Z M 6.953125 -4.703125 L 6.140625 -7.328125 C 6.085938 -7.503906 6.015625 -7.726562 5.921875 -8 C 5.835938 -8.28125 5.753906 -8.5625 5.671875 -8.84375 C 5.585938 -9.132812 5.519531 -9.382812 5.46875 -9.59375 C 5.414062 -9.382812 5.34375 -9.125 5.25 -8.8125 C 5.164062 -8.5 5.082031 -8.203125 5 -7.921875 C 4.914062 -7.648438 4.851562 -7.453125 4.8125 -7.328125 L 4 -4.703125 Z M 6.953125 -4.703125 "/></g></g></g><g fill="#000000" fill-opacity="1"><g transform="translate(257.382038, 240.952316)"><g><path d="M 5.78125 0 L 3.390625 0 L 3.390625 -9.3125 L 0.3125 -9.3125 L 0.3125 -11.3125 L 8.859375 -11.3125 L 8.859375 -9.3125 L 5.78125 -9.3125 Z M 5.78125 0 "/></g></g></g><g fill="#000000" fill-opacity="1"><g transform="translate(266.5534, 240.952316)"><g><path d="M 10.6875 0 L 8.296875 0 L 8.296875 -4.875 L 3.828125 -4.875 L 3.828125 0 L 1.421875 0 L 1.421875 -11.3125 L 3.828125 -11.3125 L 3.828125 -6.875 L 8.296875 -6.875 L 8.296875 -11.3125 L 10.6875 -11.3125 Z M 10.6875 0 "/></g></g></g><g fill="#000000" fill-opacity="1"><g transform="translate(278.671043, 240.952316)"><g><path d="M 7.9375 0 L 1.421875 0 L 1.421875 -11.3125 L 7.9375 -11.3125 L 7.9375 -9.34375 L 3.828125 -9.34375 L 3.828125 -6.859375 L 7.65625 -6.859375 L 7.65625 -4.890625 L 3.828125 -4.890625 L 3.828125 -1.984375 L 7.9375 -1.984375 Z M 7.9375 0 "/></g></g></g><g fill="#000000" fill-opacity="1"><g transform="translate(287.540817, 240.952316)"><g><path d="M 4.71875 -11.3125 C 5.75 -11.3125 6.597656 -11.1875 7.265625 -10.9375 C 7.929688 -10.6875 8.425781 -10.3125 8.75 -9.8125 C 9.070312 -9.3125 9.234375 -8.679688 9.234375 -7.921875 C 9.234375 -7.398438 9.132812 -6.945312 8.9375 -6.5625 C 8.75 -6.175781 8.492188 -5.847656 8.171875 -5.578125 C 7.847656 -5.316406 7.5 -5.097656 7.125 -4.921875 L 10.453125 0 L 7.796875 0 L 5.09375 -4.34375 L 3.828125 -4.34375 L 3.828125 0 L 1.421875 0 L 1.421875 -11.3125 Z M 4.546875 -9.34375 L 3.828125 -9.34375 L 3.828125 -6.296875 L 4.59375 -6.296875 C 5.382812 -6.296875 5.953125 -6.425781 6.296875 -6.6875 C 6.640625 -6.957031 6.8125 -7.347656 6.8125 -7.859375 C 6.8125 -8.398438 6.625 -8.78125 6.25 -9 C 5.882812 -9.226562 5.316406 -9.34375 4.546875 -9.34375 Z M 4.546875 -9.34375 "/></g></g></g></svg>